{"glyphs":{":":{"x_min":0,"x_max":286,"ha":286,"o":""},"$":{"x_min":0,"x_max":435,"ha":435,"o":"m 315 468 q 287 478 245 479 l 242 320 q 331 286 369 249 q 408 211 408 154 q 408 90 360 46 q 312 1 227 -10 l 225 -74 l 180 -78 l 182 -13 l 178 -13 q 103 -13 30 13 l 27 16 l 49 156 l 77 160 l 102 43 q 133 32 183 31 l 187 200 q 97 233 63 271 q 28 308 28 361 q 28 421 75 464 q 123 507 201 518 l 203 573 l 248 577 l 246 520 q 307 520 386 500 l 389 496 l 363 374 l 339 370 z m 303 104 q 303 152 231 183 l 228 34 q 303 48 303 104 z m 133 410 q 133 367 197 338 l 200 477 q 133 463 133 410 z"},"?":{"x_min":0,"x_max":454,"ha":454,"o":"m 123 500 l 96 496 l 63 645 l 66 649 q 166 678 241 678 q 325 678 375 640 q 425 602 425 531 q 425 501 417 477 q 408 454 394 434 q 380 415 361 398 q 342 381 321 365 q 300 349 285 336 q 269 324 259 313 q 249 303 243 292 q 238 281 238 267 q 238 246 260 215 l 230 197 q 136 282 136 332 q 136 349 142 363 q 147 377 159 391 q 170 404 186 418 q 202 433 224 450 q 247 470 263 484 q 279 498 290 510 q 300 522 304 534 q 309 546 309 562 q 309 594 284 613 q 259 632 221 632 q 188 632 154 619 z m 228 134 q 260 134 281 114 q 302 94 302 61 q 302 28 281 7 q 260 -14 228 -14 q 194 -14 173 7 q 152 28 152 61 q 152 94 173 114 q 194 134 228 134 z"},"<":{"x_min":0,"x_max":552,"ha":552,"o":"m 41 260 l 511 455 l 511 383 l 124 225 l 511 67 l 511 -4 l 41 191 z"},"'":{"x_min":0,"x_max":203,"ha":203,"o":"m 44 726 l 154 726 l 105 489 l 69 489 z"},"=":{"x_min":0,"x_max":552,"ha":552,"o":"m 41 348 l 511 348 l 511 279 l 41 279 z m 41 172 l 511 172 l 511 103 l 41 103 z"},"a":{"x_min":0,"x_max":536,"ha":536,"o":"m 310 217 q 233 217 201 198 q 168 178 168 131 q 168 88 191 70 q 214 51 246 51 q 282 51 309 70 z m 71 419 q 175 466 271 466 q 359 466 403 427 q 447 388 446 314 l 444 111 q 443 86 445 71 q 447 56 454 48 q 461 40 475 36 q 489 33 515 32 l 518 10 q 450 -14 400 -14 q 334 -14 313 39 q 251 -14 182 -14 q 114 -14 70 20 q 26 54 26 116 q 26 192 97 228 q 168 264 310 264 l 311 300 q 311 353 285 377 q 260 402 206 402 q 155 402 85 380 z"},"L":{"x_min":0,"x_max":577,"ha":577,"o":"m 269 544 l 269 158 q 269 104 270 52 l 460 52 l 527 190 l 557 195 l 545 2 l 542 -1 q 421 0 306 0 l 185 0 q 112 0 50 -1 l 47 23 l 108 41 q 120 44 121 56 q 122 76 122 100 q 122 124 122 153 l 122 542 q 122 567 122 587 q 122 607 121 624 q 121 636 109 640 l 49 659 l 47 684 q 110 682 193 682 q 278 682 340 684 l 343 659 l 282 641 q 271 638 270 626 q 269 608 269 576 q 269 543 269 544 z"},"3":{"x_min":0,"x_max":457,"ha":457,"o":"m 82 163 q 171 173 215 206 q 260 238 260 294 q 260 340 228 369 q 196 398 146 398 q 88 398 25 361 l 6 400 q 95 464 212 464 q 296 464 349 427 q 401 389 401 328 q 401 219 231 167 l 231 166 q 329 166 383 127 q 436 88 436 20 q 436 -35 408 -80 q 379 -125 324 -156 q 270 -188 188 -206 q 107 -224 2 -225 l -2 -182 q 79 -177 135 -161 q 190 -145 225 -120 q 259 -96 274 -65 q 290 -34 290 0 q 290 59 248 92 q 207 125 144 125 q 113 125 85 119 z"},";":{"x_min":0,"x_max":286,"ha":286,"o":""},"J":{"x_min":0,"x_max":363,"ha":363,"o":"m 35 684 q 103 682 186 682 q 270 682 338 684 l 340 659 l 275 641 q 263 638 262 626 q 261 608 261 588 q 261 568 261 544 l 261 103 q 261 55 256 16 q 252 -23 241 -54 q 230 -85 211 -109 q 192 -133 162 -152 q 132 -171 90 -186 q 47 -201 -11 -211 l -20 -183 q 27 -162 54 -136 q 80 -110 94 -78 q 107 -45 111 -4 q 115 37 115 88 l 115 542 q 115 567 115 587 q 114 607 114 624 q 113 636 102 640 l 36 659 z"},"V":{"x_min":0,"x_max":663,"ha":663,"o":"m 359 243 q 369 215 376 189 q 385 215 395 243 l 513 556 q 522 583 528 600 q 534 616 534 625 q 534 633 529 638 q 524 642 515 645 l 469 658 l 467 684 q 538 682 583 682 q 629 682 688 684 l 691 659 l 638 644 q 620 638 611 625 q 603 613 592 587 l 352 -2 l 301 -7 l 91 582 q 79 615 69 627 q 59 639 41 645 l -7 659 l -9 684 q 58 682 124 682 q 212 682 296 684 l 299 659 l 251 645 q 241 642 237 638 q 232 633 232 625 q 232 615 237 599 q 242 583 251 557 z"},"\"":{"x_min":0,"x_max":364,"ha":364,"o":""},"7":{"x_min":0,"x_max":472,"ha":472,"o":"m 79 -197 l 381 325 l 86 325 l 55 225 l 23 222 l 15 449 l 18 453 q 76 452 130 452 q 185 451 238 451 l 265 451 q 318 451 371 452 q 424 452 469 453 l 471 378 q 430 304 391 229 q 352 154 318 81 q 285 8 257 -62 q 229 -131 211 -195 l 81 -200 z"},"S":{"x_min":0,"x_max":527,"ha":527,"o":"m 377 637 q 346 649 309 649 q 257 649 221 619 q 186 589 186 541 q 186 512 197 492 q 209 471 229 455 q 248 439 273 426 q 298 414 325 401 q 355 387 385 370 q 416 353 439 330 q 463 307 478 274 q 493 242 493 196 q 493 97 418 41 q 344 -16 221 -16 q 133 -16 47 12 l 44 16 l 70 192 l 100 197 l 137 47 q 172 31 215 31 q 277 31 315 63 q 353 94 353 147 q 353 177 341 198 q 329 218 309 235 q 289 251 264 264 q 238 276 211 289 q 181 304 151 320 q 122 336 98 359 q 75 382 60 414 q 45 446 45 491 q 45 584 117 640 q 188 695 302 695 q 374 695 466 672 l 469 668 l 439 511 l 413 506 z"},"}":{"x_min":0,"x_max":361,"ha":361,"o":"m 327 281 q 284 273 263 254 q 243 234 243 177 l 243 -39 q 243 -112 203 -146 q 164 -179 57 -178 l 56 -152 q 90 -145 109 -135 q 127 -125 136 -110 q 145 -96 146 -76 q 147 -56 147 -28 l 147 130 q 147 204 169 239 q 191 274 247 290 l 247 293 q 191 309 169 344 q 147 379 147 453 l 147 611 q 147 639 146 659 q 145 679 136 693 q 127 708 109 718 q 90 728 57 735 l 56 761 q 164 762 203 729 q 243 695 243 622 l 243 406 q 243 349 263 329 q 284 310 326 302 z"},"Z":{"x_min":0,"x_max":589,"ha":589,"o":"m 34 -1 l 32 23 l 370 632 l 131 632 l 95 514 l 68 510 l 42 680 l 45 684 q 169 682 279 682 l 407 682 q 477 682 547 684 l 550 659 l 212 50 l 458 50 l 527 193 l 555 197 l 542 2 l 539 -1 q 400 0 293 0 l 162 0 q 94 0 34 -1 z"},"x":{"x_min":0,"x_max":534,"ha":534,"o":"m 135 317 l 84 397 q 75 413 59 418 l 11 432 l 8 455 q 73 454 146 454 q 201 454 261 455 l 264 432 l 225 421 q 248 382 297 301 q 344 368 380 420 l 343 432 l 340 455 q 379 454 417 454 q 463 454 503 455 l 505 432 l 454 419 q 441 415 431 401 q 381 338 324 258 q 395 145 454 55 q 463 41 479 35 l 526 22 l 529 -1 q 464 0 392 0 q 336 0 276 -1 l 274 22 l 312 33 q 282 82 229 166 q 179 97 137 34 l 173 22 l 176 -1 q 139 0 101 0 q 54 0 9 -1 l 6 22 l 59 35 q 75 40 88 56 q 140 123 202 209 z"},")":{"x_min":0,"x_max":386,"ha":386,"o":"m 71 768 q 312 580 312 292 q 312 3 71 -185 l 49 -166 q 205 8 205 291 q 205 575 49 749 z"},"&":{"x_min":0,"x_max":726,"ha":726,"o":"m 467 380 q 495 379 523 379 q 551 378 584 378 q 613 378 635 379 q 657 379 677 380 l 679 355 l 616 340 q 605 337 607 329 q 610 312 610 287 q 610 197 558 121 q 595 73 623 50 q 636 39 653 35 q 669 30 687 30 q 700 30 716 33 l 721 6 q 668 -16 612 -16 q 525 -16 466 36 q 385 -14 289 -14 q 186 -14 114 36 q 43 86 43 170 q 43 288 184 357 q 140 406 121 444 q 103 483 103 528 q 103 598 161 640 q 219 682 301 682 q 376 682 428 645 q 480 608 480 546 q 480 449 335 377 l 520 165 q 552 220 552 279 q 552 309 549 323 q 548 333 543 336 q 539 340 529 342 l 469 354 z m 215 320 q 182 277 182 208 q 182 140 220 95 q 259 51 325 51 q 378 51 428 76 z m 306 411 q 356 458 356 540 q 356 583 339 609 q 322 635 292 635 q 262 635 245 613 q 227 591 227 557 q 227 501 280 440 z"},"_":{"x_min":0,"x_max":500,"ha":500,"o":"m 500 -131 l 0 -131 l 0 -87 l 500 -87 z"},"v":{"x_min":0,"x_max":518,"ha":518,"o":"m -13 455 q 51 454 122 454 q 189 454 251 455 l 254 432 l 202 417 q 233 326 275 217 q 287 188 298 154 q 311 188 323 217 q 362 315 399 417 l 349 432 l 346 455 q 382 454 435 454 q 479 454 522 455 l 525 432 l 472 417 q 460 414 453 398 q 415 310 364 185 q 312 61 286 -4 l 224 -11 q 197 61 146 185 q 95 309 59 396 q 51 413 38 418 l -11 432 z"},"O":{"x_min":0,"x_max":829,"ha":829,"o":"m 212 350 q 212 194 265 111 q 318 28 420 28 q 521 28 569 104 q 617 179 617 340 q 617 491 566 573 q 515 654 409 654 q 306 654 259 578 q 212 503 212 350 z m 781 356 q 781 188 681 85 q 582 -18 404 -18 q 234 -18 141 77 q 48 172 48 334 q 48 503 148 601 q 249 700 425 700 q 595 700 688 608 q 781 516 781 356 z"},"(":{"x_min":0,"x_max":386,"ha":386,"o":"m 314 -185 q 73 3 73 291 q 73 580 314 768 l 337 749 q 181 575 181 292 q 181 8 337 -166 z"},"C":{"x_min":0,"x_max":660,"ha":660,"o":"m 585 499 l 558 495 l 521 635 q 482 647 438 647 q 330 647 271 566 q 211 485 211 354 q 211 215 281 132 q 351 49 474 49 q 543 49 619 77 l 625 49 q 528 -18 405 -18 q 245 -18 147 79 q 48 175 48 332 q 48 500 156 597 q 264 695 438 695 q 524 695 614 675 l 617 670 z"},"W":{"x_min":0,"x_max":981,"ha":981,"o":"m 696 265 q 704 239 709 213 q 717 240 725 264 l 827 556 q 836 585 841 600 q 845 616 845 625 q 845 633 840 638 q 835 642 826 645 l 779 658 l 778 684 q 849 682 893 682 q 939 682 999 684 l 1001 659 l 949 644 q 931 638 921 625 q 912 613 902 587 l 692 0 l 639 -4 l 515 383 q 505 414 495 449 q 483 414 473 383 l 338 0 l 285 -4 l 95 582 q 83 615 73 627 q 62 639 44 645 l -3 659 l -5 684 q 61 682 128 682 q 216 682 300 684 l 303 659 l 254 645 q 245 642 240 638 q 236 633 236 625 q 236 615 240 599 q 243 583 251 557 l 342 265 q 350 239 355 213 q 363 240 371 264 l 516 684 l 565 688 z"},"A":{"x_min":0,"x_max":669,"ha":669,"o":"m 186 217 l 151 125 q 141 99 135 82 q 129 66 129 57 q 129 49 134 44 q 138 40 147 38 l 194 24 l 196 -1 q 125 0 81 0 q 34 0 -25 -1 l -28 23 l 24 39 q 43 44 52 56 q 61 69 71 94 l 314 687 l 367 694 l 578 101 q 590 66 600 54 q 610 42 628 37 l 676 23 l 678 -1 q 612 0 545 0 q 457 0 373 -1 l 370 23 l 418 37 q 428 40 433 44 q 437 49 437 58 q 437 67 432 83 q 427 99 418 125 l 386 217 z m 291 497 q 282 472 272 444 l 205 268 l 368 268 l 308 444 q 299 472 291 497 z"},"f":{"x_min":0,"x_max":354,"ha":354,"o":"m 236 396 l 236 138 q 236 92 237 58 q 238 44 250 41 l 316 22 l 318 -1 q 239 0 168 0 q 95 0 24 -1 l 22 22 l 82 38 q 96 42 96 54 q 98 84 98 118 l 98 398 l 26 415 l 22 441 l 98 448 q 98 584 160 660 q 222 736 332 736 q 390 736 438 722 q 422 653 412 584 l 385 579 l 354 688 q 347 689 337 689 q 286 689 261 641 q 236 592 236 462 l 236 449 l 354 449 l 354 396 z"},"Q":{"x_min":0,"x_max":828,"ha":828,"o":"m 794 -84 l 802 -111 q 702 -222 637 -222 q 555 -222 492 -173 q 429 -125 394 -18 q 230 -15 139 79 q 48 172 48 334 q 48 503 148 601 q 249 700 425 700 q 595 700 688 608 q 781 516 781 356 q 781 199 695 100 q 609 1 467 -14 q 514 -109 673 -109 q 741 -109 794 -84 z m 212 350 q 212 194 265 111 q 318 28 420 28 q 521 28 569 104 q 617 179 617 340 q 617 491 566 573 q 515 654 409 654 q 306 654 259 578 q 212 503 212 350 z"},"w":{"x_min":0,"x_max":763,"ha":763,"o":"m 448 456 q 477 370 528 219 q 539 189 549 154 q 561 188 572 219 q 608 316 643 417 l 592 432 l 589 455 q 625 454 679 454 q 722 454 766 455 l 768 432 l 715 417 q 703 414 696 398 q 660 310 611 187 q 562 63 537 -2 l 475 -9 q 449 62 405 187 q 392 226 381 258 q 369 225 355 187 q 308 63 283 -2 l 220 -9 q 194 62 146 186 q 98 309 63 396 q 56 413 42 418 l -7 432 l -8 455 q 56 454 126 454 q 194 454 255 455 l 258 432 l 206 417 q 234 327 274 219 q 284 189 295 154 q 306 188 318 219 q 366 354 399 452 z"},"-":{"x_min":0,"x_max":350,"ha":350,"o":"m 39 278 l 311 278 l 311 207 l 39 207 z"},"E":{"x_min":0,"x_max":602,"ha":602,"o":"m 172 682 l 296 682 q 415 682 542 684 l 545 680 l 515 517 l 489 513 l 458 632 l 269 632 l 269 373 l 295 373 q 337 373 386 374 q 399 374 403 387 l 420 454 l 453 455 q 451 384 451 349 q 451 315 453 245 l 420 242 l 402 311 q 398 324 387 325 q 337 326 294 326 l 269 326 l 269 158 q 269 104 270 52 l 465 52 l 526 180 l 556 185 l 544 2 l 541 -1 q 419 0 304 0 l 175 0 q 112 0 45 -1 l 42 23 l 108 41 q 120 44 121 56 q 122 76 122 100 q 122 124 122 153 l 122 542 q 122 567 122 587 q 122 607 121 624 q 121 636 109 640 l 44 659 l 42 684 q 111 682 172 682 z"},"s":{"x_min":0,"x_max":457,"ha":457,"o":"m 319 411 q 289 418 253 418 q 208 418 180 403 q 152 387 152 358 q 152 336 165 324 q 177 312 207 302 l 285 275 q 354 251 387 217 q 419 183 419 138 q 419 66 359 26 q 298 -14 200 -14 q 118 -14 39 20 q 56 85 66 147 l 91 151 l 126 44 q 156 34 201 34 q 244 34 270 50 q 296 66 296 95 q 296 119 281 135 q 265 152 217 168 l 158 188 q 101 208 72 240 q 43 272 43 319 q 43 390 99 428 q 155 466 254 466 q 335 466 400 442 q 386 378 375 321 l 349 317 z"},">":{"x_min":0,"x_max":552,"ha":552,"o":"m 511 191 l 41 -4 l 41 67 l 429 225 l 41 383 l 41 455 l 511 260 z"},"l":{"x_min":0,"x_max":329,"ha":329,"o":"m 19 698 q 141 716 231 736 l 237 732 q 234 665 234 588 l 234 137 q 234 79 235 56 q 236 42 247 39 l 308 22 l 310 -1 q 237 0 166 0 q 93 0 22 -1 l 20 22 l 82 39 q 93 42 94 54 q 95 73 95 118 l 95 541 q 95 605 93 659 l 21 678 z"},"8":{"x_min":0,"x_max":535,"ha":535,"o":"m 339 386 q 427 345 466 297 q 505 250 505 188 q 505 99 434 43 q 362 -13 259 -13 q 157 -13 93 33 q 29 78 29 156 q 29 210 65 249 q 100 289 176 326 q 61 390 61 495 q 61 573 123 621 q 184 670 276 670 q 358 670 413 632 q 468 594 468 531 q 468 486 434 452 q 400 418 339 386 z m 216 303 q 156 236 156 161 q 156 105 187 69 q 218 33 268 33 q 314 33 344 63 q 373 94 373 145 q 373 190 342 224 q 310 258 216 303 z m 300 408 q 345 469 345 519 q 345 569 321 597 q 296 625 256 625 q 223 625 200 601 q 178 578 178 541 q 178 503 204 474 q 229 446 300 408 z"},"\\":{"x_min":0,"x_max":403,"ha":403,"o":"m 286 -110 l 39 696 l 107 696 l 354 -110 z"},"e":{"x_min":0,"x_max":538,"ha":538,"o":"m 499 32 q 409 -14 309 -14 q 189 -14 114 45 q 39 104 39 219 q 39 328 111 397 q 184 466 296 466 q 394 466 448 413 q 501 360 501 267 q 501 253 500 238 l 188 238 q 188 140 236 97 q 284 54 394 54 q 447 54 495 63 z m 353 285 l 353 297 q 353 363 336 392 q 319 421 284 421 q 243 421 218 381 q 193 341 189 285 z"},"b":{"x_min":0,"x_max":609,"ha":609,"o":"m 224 44 q 256 35 289 35 q 355 35 388 84 q 421 133 421 224 q 421 307 390 354 q 359 400 299 400 q 261 400 224 384 z m 227 732 q 224 659 224 514 l 224 420 q 299 466 370 466 q 462 466 516 405 q 570 343 570 243 q 570 122 493 54 q 417 -13 280 -13 q 195 -13 84 19 q 85 77 85 174 l 85 464 q 85 572 83 659 l 12 678 l 9 698 q 130 716 222 736 z"},"%":{"x_min":0,"x_max":821,"ha":821,"o":""},"m":{"x_min":0,"x_max":936,"ha":936,"o":"m 848 146 q 848 85 849 56 q 850 42 862 39 l 921 22 l 922 -1 q 853 0 782 0 q 708 0 653 -1 l 650 22 l 697 37 q 708 40 709 51 q 709 59 709 82 l 709 287 q 709 347 687 373 q 665 399 621 399 q 581 399 536 371 q 542 347 542 317 l 542 146 q 542 85 543 54 q 544 41 555 38 l 604 22 l 604 -1 q 547 0 476 0 q 403 0 347 -1 l 345 22 l 391 37 q 402 40 403 51 q 404 59 404 82 l 404 287 q 404 347 382 373 q 359 399 315 399 q 277 399 236 375 l 236 166 q 236 104 237 54 q 238 41 249 38 l 297 22 l 298 -1 q 240 0 168 0 q 96 0 25 -1 l 23 22 l 86 39 q 97 42 97 54 q 98 85 98 114 l 98 274 q 98 338 96 393 l 26 411 l 23 431 q 136 447 229 468 l 236 464 l 236 412 q 316 466 395 466 q 483 466 523 402 q 614 466 700 466 q 769 466 809 427 q 848 389 848 317 z"},"#":{"x_min":0,"x_max":552,"ha":552,"o":"m 452 632 l 423 445 l 521 445 l 521 375 l 413 375 l 394 252 l 491 252 l 491 181 l 383 181 l 355 -5 l 293 -5 l 322 181 l 190 181 l 162 -5 l 100 -5 l 128 181 l 31 181 l 31 252 l 139 252 l 158 375 l 61 375 l 61 445 l 168 445 l 197 632 l 259 632 l 230 445 l 362 445 l 390 632 z m 201 252 l 333 252 l 351 375 l 220 375 z"},",":{"x_min":0,"x_max":286,"ha":286,"o":"m 49 -131 q 137 -66 137 -1 q 137 56 73 88 q 73 125 94 145 q 115 165 147 165 q 183 165 206 137 q 229 110 229 68 q 229 5 190 -52 q 151 -108 74 -161 z"},"n":{"x_min":0,"x_max":640,"ha":640,"o":"m 23 431 q 136 447 229 468 l 236 464 l 236 412 q 319 466 399 466 q 471 466 511 427 q 552 389 552 317 l 552 146 q 552 85 553 56 q 553 42 565 39 l 625 22 l 626 -1 q 556 0 485 0 q 412 0 354 -1 l 352 22 l 400 37 q 412 40 413 51 q 413 59 413 82 l 413 287 q 413 347 390 373 q 366 399 320 399 q 279 399 236 375 l 236 166 q 236 104 237 54 q 238 41 249 38 l 299 22 l 300 -1 q 240 0 168 0 q 96 0 25 -1 l 23 22 l 86 39 q 97 42 97 54 q 98 85 98 114 l 98 274 q 98 338 96 393 l 26 411 z"},"h":{"x_min":0,"x_max":637,"ha":637,"o":"m 397 466 q 468 466 509 427 q 549 389 549 317 l 549 146 q 549 85 550 56 q 551 42 563 39 l 622 22 l 624 -1 q 554 0 483 0 q 410 0 351 -1 l 349 22 l 398 37 q 409 40 410 51 q 411 59 411 82 l 411 287 q 411 347 387 373 q 364 399 317 399 q 277 399 234 380 l 234 166 q 234 104 235 54 q 235 41 246 38 l 297 22 l 298 -1 q 237 0 166 0 q 93 0 23 -1 l 21 22 l 83 39 q 94 42 95 54 q 95 85 95 114 l 95 541 q 95 605 93 659 l 21 678 l 19 698 q 141 716 231 736 l 237 732 q 234 665 234 588 l 234 417 q 316 466 397 466 z"},"z":{"x_min":0,"x_max":508,"ha":508,"o":"m 37 4 q 111 124 158 202 q 204 279 281 407 l 127 407 l 95 307 l 71 304 q 61 380 47 451 l 49 455 q 146 454 233 454 q 367 454 461 455 l 465 450 q 400 346 345 253 q 290 160 225 48 l 380 48 l 441 151 l 467 154 q 458 78 455 2 l 451 -1 q 367 0 264 0 q 120 0 40 -1 z"},"B":{"x_min":0,"x_max":661,"ha":661,"o":"m 42 684 q 111 682 183 682 q 209 683 266 685 q 322 687 343 687 q 466 687 529 647 q 592 607 592 532 q 592 415 453 370 q 534 359 577 314 q 621 269 621 202 q 621 104 542 51 q 464 -3 320 -3 q 292 -3 260 -1 q 229 0 183 0 q 112 0 45 -1 l 42 23 l 108 41 q 120 44 121 56 q 122 76 122 100 q 122 124 122 153 l 122 542 q 122 567 122 587 q 122 607 121 624 q 121 636 109 640 l 44 659 z m 268 338 l 268 46 q 295 42 325 42 q 392 42 427 80 q 461 119 461 193 q 461 267 426 302 q 391 338 312 338 q 290 338 268 338 z m 268 382 q 292 381 315 381 q 377 381 407 411 q 438 441 438 513 q 438 581 406 610 q 375 639 317 639 q 308 639 295 638 q 283 638 268 636 z"},"K":{"x_min":0,"x_max":731,"ha":731,"o":"m 269 544 l 269 153 q 269 124 269 100 q 269 76 270 57 q 270 44 282 40 l 339 23 l 340 -1 q 280 0 197 0 q 112 0 45 -1 l 42 23 l 108 41 q 121 45 121 56 q 122 76 122 100 q 122 124 122 153 l 122 542 q 122 567 122 587 q 122 607 121 624 q 121 636 109 640 l 44 659 l 42 684 q 110 682 193 682 q 277 682 337 684 l 340 659 l 282 642 q 271 639 270 627 q 269 609 269 588 q 269 568 269 544 z m 280 341 l 480 562 q 504 587 518 605 q 531 623 531 634 q 531 643 518 647 l 476 658 l 474 684 q 526 682 587 682 q 648 682 703 684 l 705 659 l 650 644 q 626 636 609 621 q 592 606 573 585 l 405 398 l 620 83 q 636 61 648 52 q 660 42 677 38 l 725 23 l 726 -1 q 672 0 614 0 q 561 0 499 -1 q 484 31 419 130 z"},"R":{"x_min":0,"x_max":705,"ha":705,"o":"m 267 153 q 267 124 267 101 q 268 78 268 59 q 269 43 279 40 l 330 23 l 332 -1 q 277 0 197 0 q 112 0 45 -1 l 42 23 l 108 41 q 120 44 121 56 q 122 76 122 100 q 122 124 122 153 l 122 542 q 122 567 122 587 q 122 607 121 624 q 121 636 109 640 l 44 659 l 42 684 q 111 682 183 682 q 198 682 220 682 q 243 683 275 684 q 304 685 324 686 q 344 686 355 686 q 480 686 543 644 q 606 602 606 521 q 606 449 568 404 q 529 359 455 335 q 496 275 518 237 q 541 200 563 163 q 585 127 604 99 q 622 71 638 55 q 647 48 655 42 q 663 37 672 33 q 681 29 691 27 q 701 24 713 21 l 715 -3 q 667 -10 605 -10 q 557 -10 537 -4 q 518 2 502 14 q 480 32 461 60 q 442 88 421 124 q 400 160 378 200 q 356 240 332 279 q 324 290 320 297 q 315 305 310 308 q 306 312 301 314 q 295 315 288 316 l 267 316 z m 267 359 q 293 357 314 357 q 383 357 416 392 q 448 427 448 501 q 448 573 417 606 q 386 639 320 639 q 309 639 296 638 q 283 637 267 635 z"},"T":{"x_min":0,"x_max":621,"ha":621,"o":"m 313 0 q 227 0 149 -1 l 146 23 l 225 44 q 237 48 237 60 q 238 97 238 154 l 238 631 l 98 631 l 53 501 l 25 497 l 13 680 l 16 684 q 136 682 246 682 l 382 682 q 492 682 614 684 l 617 680 l 584 501 l 557 497 l 525 631 l 384 631 l 384 154 q 384 97 385 60 q 386 48 398 44 l 475 23 l 477 -1 q 396 0 313 0 z"},"P":{"x_min":0,"x_max":642,"ha":642,"o":"m 269 333 q 296 328 324 328 q 388 328 421 367 q 455 406 455 486 q 455 563 423 601 q 391 639 323 639 q 296 639 269 635 z m 269 153 q 269 124 269 101 q 269 78 270 59 q 270 48 282 43 l 354 23 l 355 -1 q 280 0 197 0 q 112 0 45 -1 l 42 23 l 108 41 q 121 45 121 56 q 122 76 122 100 q 122 124 122 153 l 122 542 q 122 567 122 587 q 122 607 121 624 q 121 636 109 640 l 44 659 l 42 684 q 111 682 178 682 q 224 682 267 684 q 310 686 346 686 q 478 686 545 640 q 613 594 613 504 q 613 398 543 340 q 472 281 344 281 q 309 281 269 286 z"},"|":{"x_min":0,"x_max":353,"ha":353,"o":"m 211 745 l 211 -248 l 142 -248 l 142 745 z"},"t":{"x_min":0,"x_max":390,"ha":390,"o":"m 221 396 q 218 243 218 137 q 218 88 233 69 q 249 50 292 50 q 325 50 364 54 l 368 25 q 290 -13 223 -13 q 154 -13 117 15 q 80 44 80 102 q 80 203 83 398 l 17 415 l 12 441 l 94 449 l 140 563 q 182 571 216 578 l 223 574 q 221 515 221 449 l 358 449 l 358 396 z"},"M":{"x_min":0,"x_max":935,"ha":935,"o":"m 654 684 q 722 682 776 682 q 824 682 890 684 l 893 659 l 826 640 q 814 636 814 624 q 813 591 813 542 l 813 153 q 813 96 814 56 q 814 45 827 41 l 891 23 l 893 -1 q 823 0 738 0 q 655 0 600 -1 l 597 23 l 653 40 q 665 43 666 58 q 667 96 667 153 l 667 466 q 667 491 668 563 q 652 521 633 476 l 439 0 l 395 -4 l 209 458 q 193 498 175 547 q 176 478 176 456 l 176 153 q 176 96 177 58 q 178 43 190 40 l 244 23 l 245 -1 q 188 0 145 0 q 103 0 35 -1 l 33 23 l 98 41 q 111 45 111 56 q 112 96 112 153 l 112 542 q 112 591 111 624 q 111 636 100 640 l 34 659 l 33 684 q 114 682 154 682 q 210 682 268 684 l 438 253 q 450 226 458 201 q 468 226 479 253 z"},"g":{"x_min":0,"x_max":545,"ha":545,"o":"m 541 428 l 427 399 q 463 358 463 306 q 463 227 406 180 q 350 134 257 134 q 199 134 155 150 q 136 116 136 93 q 136 80 149 76 q 162 71 203 71 q 232 71 274 72 q 317 73 352 73 q 434 73 479 42 q 523 12 523 -50 q 523 -142 432 -197 q 342 -251 228 -251 q 133 -251 78 -223 q 23 -195 23 -151 q 23 -93 100 -32 q 49 -11 49 29 q 49 77 123 166 q 49 209 49 295 q 49 371 106 417 q 163 464 259 464 q 285 464 328 458 q 370 451 393 451 q 473 451 538 453 z m 142 -38 q 119 -82 119 -119 q 119 -157 154 -178 q 189 -200 250 -200 q 324 -200 377 -172 q 431 -143 431 -95 q 431 -68 409 -53 q 387 -37 312 -37 q 283 -37 249 -38 q 215 -40 186 -40 q 165 -40 142 -38 z m 188 303 q 188 240 204 205 q 220 170 258 170 q 297 170 312 203 q 326 235 326 298 q 326 358 311 393 q 295 427 255 427 q 216 427 202 396 q 188 364 188 303 z"},"j":{"x_min":0,"x_max":314,"ha":314,"o":"m 16 431 q 136 449 226 468 l 232 464 q 229 401 229 325 l 229 64 q 229 -34 176 -99 q 124 -164 22 -246 l -5 -222 q 63 -130 77 -85 q 90 -40 90 41 l 90 277 q 90 336 88 393 l 19 411 z m 230 630 q 230 596 209 575 q 187 554 152 554 q 120 554 99 574 q 78 594 78 625 q 78 660 100 680 q 122 700 157 700 q 189 700 210 682 q 230 664 230 630 z"},"i":{"x_min":0,"x_max":332,"ha":332,"o":"m 238 630 q 238 596 216 575 q 194 554 159 554 q 127 554 106 574 q 85 594 85 625 q 85 660 107 680 q 129 700 165 700 q 197 700 217 682 q 238 664 238 630 z m 23 431 q 143 449 234 468 l 239 464 q 236 397 236 321 l 236 137 q 236 79 237 56 q 238 42 250 39 l 311 22 l 312 -1 q 240 0 168 0 q 96 0 25 -1 l 22 22 l 84 39 q 96 42 97 54 q 98 73 98 118 l 98 275 q 98 339 96 393 l 26 411 z"},"y":{"x_min":0,"x_max":512,"ha":512,"o":"m -18 455 q 47 454 100 454 q 168 454 246 455 l 248 432 l 187 416 q 206 368 223 325 q 240 281 269 215 q 281 187 296 150 q 311 188 326 226 q 365 330 398 417 l 348 432 l 345 455 q 383 454 435 454 q 480 454 521 455 l 523 432 l 477 419 q 461 414 454 399 q 437 358 416 309 q 353 157 317 57 q 295 -8 277 -75 q 259 -143 248 -194 q 243 -222 228 -232 q 213 -243 162 -243 q 108 -243 60 -239 l 57 -216 q 114 -209 136 -185 q 168 -151 235 -3 l 239 6 l 213 13 q 125 230 53 398 q 47 414 31 418 l -16 432 z"},"@":{"x_min":0,"x_max":881,"ha":881,"o":"m 649 422 q 635 374 616 279 l 585 129 q 582 115 582 106 q 582 90 591 82 q 599 73 613 73 q 654 73 693 131 q 731 188 731 286 q 731 404 657 476 q 583 549 473 549 q 334 549 248 450 q 162 352 162 200 q 162 60 249 -28 q 335 -115 472 -115 q 549 -115 626 -84 q 702 -52 759 0 l 784 -28 q 629 -174 437 -174 q 265 -174 159 -75 q 54 24 54 187 q 54 364 176 478 q 298 593 483 593 q 626 593 726 509 q 825 424 825 291 q 825 170 742 95 q 659 19 562 19 q 473 19 461 87 q 384 21 344 21 q 291 21 259 62 q 227 102 227 165 q 227 275 297 352 q 368 428 472 428 q 511 428 564 412 q 601 415 644 426 z m 512 371 q 490 386 466 386 q 416 386 386 321 q 355 256 355 187 q 355 140 365 114 q 375 87 397 87 q 420 87 462 127 z"},".":{"x_min":0,"x_max":286,"ha":286,"o":"m 146 139 q 179 139 201 118 q 223 98 223 63 q 223 30 201 8 q 179 -13 146 -13 q 111 -13 90 8 q 68 30 68 63 q 68 98 90 118 q 111 139 146 139 z"},"p":{"x_min":0,"x_max":611,"ha":611,"o":"m 16 411 l 13 431 q 126 447 220 468 l 227 464 l 227 418 q 303 466 373 466 q 465 466 519 406 q 573 345 573 247 q 573 125 497 56 q 421 -14 296 -14 q 263 -14 227 -7 l 227 -110 q 227 -158 228 -178 q 229 -193 241 -196 l 310 -214 l 312 -237 q 230 -236 159 -236 q 86 -236 16 -237 l 13 -214 l 75 -197 q 86 -194 87 -182 q 88 -146 88 -74 l 88 121 q 88 334 86 393 z m 227 42 q 261 35 293 35 q 357 35 391 84 q 424 133 424 225 q 424 312 393 356 q 361 400 302 400 q 260 400 227 384 z"},"X":{"x_min":0,"x_max":686,"ha":686,"o":"m 701 -1 q 633 0 550 0 q 473 0 379 -1 l 375 23 l 419 35 q 429 38 434 42 q 438 47 438 54 q 438 65 429 81 q 420 97 410 114 l 304 281 l 208 131 q 193 108 181 88 q 169 68 169 55 q 169 48 173 43 q 176 39 187 36 l 229 24 l 230 -1 q 175 0 112 0 q 56 0 -2 -1 l -5 23 l 51 39 q 69 44 83 56 q 96 67 111 91 l 272 331 l 105 596 q 89 622 78 632 q 66 642 51 646 l 0 659 l -2 684 q 67 682 157 682 q 234 682 321 684 l 324 659 l 281 647 q 271 645 266 640 q 262 635 262 628 q 262 616 271 600 q 280 584 290 568 l 374 435 l 449 551 q 464 573 476 594 q 488 615 488 627 q 488 640 468 646 l 425 658 l 424 684 q 478 682 541 682 q 601 682 655 684 l 658 659 l 603 644 q 584 638 573 626 q 561 614 542 585 l 405 385 l 590 92 q 610 60 621 51 q 631 41 649 37 l 700 23 z"},"*":{"x_min":0,"x_max":440,"ha":440,"o":"m 404 539 l 248 525 l 351 414 l 285 367 l 224 510 l 150 377 l 84 425 l 203 528 l 54 557 l 79 635 l 212 554 l 194 705 l 276 705 l 241 552 l 378 616 z"},"Y":{"x_min":0,"x_max":617,"ha":617,"o":"m 363 370 l 457 556 q 470 581 478 598 q 486 615 486 625 q 486 640 464 646 l 420 658 l 418 684 q 473 682 532 682 q 586 682 639 684 l 642 659 l 590 644 q 572 638 563 626 q 553 615 543 597 l 389 312 l 389 153 q 389 124 389 100 q 390 76 390 57 q 391 44 407 40 l 462 23 l 463 -1 q 400 0 318 0 q 233 0 170 -1 l 168 23 l 229 41 q 241 44 242 56 q 242 76 243 100 q 243 124 243 153 l 243 300 l 84 584 q 66 614 55 627 q 43 640 24 646 l -22 659 l -24 684 q 24 682 113 682 q 210 682 298 684 l 300 659 l 250 646 q 239 644 234 639 q 229 635 229 627 q 229 617 235 603 q 242 588 254 568 z"},"c":{"x_min":0,"x_max":484,"ha":484,"o":"m 450 32 q 369 -14 283 -14 q 176 -14 107 48 q 38 110 38 214 q 38 327 113 396 q 188 466 304 466 q 378 466 446 438 q 429 370 416 294 l 389 290 l 351 412 q 338 417 315 417 q 260 417 224 368 q 188 319 188 238 q 188 143 234 97 q 279 52 362 52 q 402 52 446 62 z"},"!":{"x_min":0,"x_max":305,"ha":305,"o":"m 157 203 l 101 662 l 253 668 l 258 664 l 195 205 z m 175 134 q 208 134 229 114 q 250 94 250 61 q 250 28 229 7 q 208 -14 175 -14 q 142 -14 121 7 q 100 28 100 61 q 100 94 121 114 q 142 134 175 134 z"},"/":{"x_min":0,"x_max":403,"ha":403,"o":"m 49 -110 l 295 696 l 364 696 l 117 -110 z"},"[":{"x_min":0,"x_max":355,"ha":355,"o":"m 189 -121 l 310 -149 l 311 -174 l 103 -174 l 103 756 l 310 756 l 311 731 l 189 704 z"},"6":{"x_min":0,"x_max":548,"ha":548,"o":"m 470 636 q 204 594 172 354 l 172 353 q 228 417 325 417 q 404 417 461 362 q 519 308 519 216 q 519 115 447 51 q 375 -13 273 -13 q 162 -13 92 64 q 21 140 21 259 q 21 439 140 552 q 259 664 464 680 z m 376 177 q 376 264 345 312 q 314 360 266 360 q 221 360 195 323 q 168 287 168 221 q 168 132 198 81 q 227 30 284 30 q 330 30 353 70 q 376 110 376 177 z"},"r":{"x_min":0,"x_max":434,"ha":434,"o":"m 23 431 q 136 447 229 468 l 236 464 l 236 411 q 323 466 417 466 l 419 463 q 404 385 390 297 l 361 292 q 349 340 336 366 q 324 392 298 392 q 273 392 236 375 l 236 166 q 236 90 237 58 q 238 44 250 41 l 319 22 l 321 -1 q 240 0 166 0 q 96 0 25 -1 l 23 22 l 85 39 q 97 42 97 54 q 98 75 98 114 l 98 277 q 98 356 96 393 l 26 411 z"},"2":{"x_min":0,"x_max":485,"ha":485,"o":"m 422 169 l 451 173 l 441 2 l 438 -1 q 342 0 229 0 q 125 0 23 -1 l 20 58 q 61 86 99 111 q 137 136 166 156 q 196 177 216 196 q 236 214 248 231 q 259 249 264 265 q 269 282 269 301 q 269 344 237 369 q 205 394 157 394 q 107 394 51 363 l 32 402 q 124 464 220 464 q 301 464 353 424 q 405 384 405 326 q 405 290 389 263 q 374 236 342 211 q 310 186 261 159 q 213 132 148 96 l 148 94 l 386 94 z"},"{":{"x_min":0,"x_max":361,"ha":361,"o":"m 34 302 q 78 310 98 329 q 119 349 119 406 l 119 622 q 119 695 158 729 q 197 762 304 761 l 305 735 q 271 728 252 718 q 234 708 225 693 q 217 679 215 659 q 214 639 214 611 l 214 453 q 214 379 192 344 q 170 309 114 293 l 114 290 q 170 274 192 239 q 214 204 214 130 l 214 -28 q 214 -56 215 -76 q 217 -96 225 -110 q 234 -125 252 -135 q 271 -145 304 -152 l 305 -178 q 197 -179 158 -146 q 119 -112 119 -39 l 119 177 q 119 234 98 254 q 78 273 35 281 z"},"9":{"x_min":0,"x_max":546,"ha":546,"o":"m 78 -180 q 346 -141 376 98 l 376 98 q 320 35 224 35 q 145 35 87 89 q 30 143 30 235 q 30 336 102 400 q 174 464 275 464 q 386 464 457 388 q 527 312 527 192 q 527 18 415 -94 q 302 -205 84 -225 z m 172 274 q 172 186 203 138 q 234 91 282 91 q 328 91 354 128 q 380 165 380 230 q 380 324 350 373 q 319 421 265 421 q 220 421 196 382 q 172 343 172 274 z"}," ":{"x_min":0,"x_max":239,"ha":239,"o":""},"I":{"x_min":0,"x_max":391,"ha":391,"o":"m 269 153 q 269 124 269 100 q 269 76 270 57 q 270 44 286 40 l 346 23 l 348 -1 q 280 0 197 0 q 112 0 45 -1 l 42 23 l 108 41 q 120 44 121 56 q 122 76 122 100 q 122 124 122 153 l 122 542 q 122 567 122 587 q 122 607 121 624 q 121 636 109 640 l 44 659 l 42 684 q 110 682 193 682 q 278 682 345 684 l 348 659 l 282 641 q 271 638 270 626 q 269 608 269 588 q 269 568 269 544 z"},"H":{"x_min":0,"x_max":828,"ha":828,"o":"m 269 334 l 269 153 q 269 96 270 57 q 270 43 282 40 l 339 23 l 340 -1 q 280 0 197 0 q 113 0 45 -1 l 42 23 l 108 41 q 121 45 121 56 q 122 96 122 153 l 122 542 q 122 591 121 624 q 121 636 109 640 l 44 659 l 42 684 q 110 682 193 682 q 278 682 337 684 l 340 659 l 282 642 q 270 639 270 627 q 269 592 269 544 l 269 386 l 560 386 l 560 544 q 560 592 559 627 q 558 639 546 642 l 489 659 l 487 684 q 549 682 634 682 q 716 682 783 684 l 785 659 l 719 640 q 708 636 707 624 q 706 591 706 542 l 706 153 q 706 96 707 56 q 708 45 720 41 l 784 23 l 785 -1 q 715 0 631 0 q 548 0 490 -1 l 487 23 l 546 40 q 558 43 559 57 q 560 96 560 153 l 560 334 z"},"4":{"x_min":0,"x_max":523,"ha":523,"o":"m 88 65 l 279 65 l 279 310 q 255 281 230 251 q 205 220 181 189 q 156 158 133 126 q 109 95 88 65 z m 414 -60 q 414 -138 416 -195 q 344 -202 285 -210 l 278 -207 q 279 -148 279 -67 l 279 -2 l 158 -2 q 97 -2 8 -4 l 5 42 q 44 89 86 142 q 128 194 171 247 q 213 301 254 354 q 295 408 333 459 l 417 464 q 414 354 414 260 l 414 65 l 521 65 l 522 -4 q 473 -2 414 -2 z"},"~":{"x_min":0,"x_max":552,"ha":552,"o":"m 41 248 q 108 291 167 291 q 199 291 229 281 q 259 271 289 259 q 317 248 343 239 q 370 229 398 229 q 446 229 511 272 l 511 203 q 448 163 389 163 q 356 163 326 172 q 295 182 266 194 q 237 205 211 213 q 185 222 157 222 q 108 222 41 179 z"},"D":{"x_min":0,"x_max":790,"ha":790,"o":"m 175 0 q 112 0 45 -1 l 42 23 l 108 41 q 121 45 121 56 q 122 76 122 100 q 122 124 122 153 l 122 542 q 122 567 122 587 q 122 607 121 624 q 121 636 109 640 l 44 659 l 42 684 q 111 682 173 682 q 226 682 274 684 q 323 687 375 687 q 557 687 648 609 q 740 531 740 377 q 740 197 638 97 q 537 -3 352 -3 q 301 -3 262 -1 q 222 0 175 0 z m 269 50 q 292 45 314 44 q 337 43 360 43 q 466 43 521 118 q 576 192 576 345 q 576 494 523 566 q 471 638 357 638 q 315 638 269 634 z"},"^":{"x_min":0,"x_max":552,"ha":552,"o":"m 311 682 l 501 274 l 428 274 l 275 605 l 122 274 l 51 274 l 242 682 z"},"0":{"x_min":0,"x_max":577,"ha":577,"o":"m 186 232 q 186 135 212 84 q 239 34 291 34 q 344 34 368 81 q 392 128 392 227 q 392 326 365 373 q 338 419 286 419 q 235 419 210 376 q 186 333 186 232 z m 538 237 q 538 120 468 53 q 398 -13 283 -13 q 169 -13 104 49 q 39 110 39 220 q 39 333 108 399 q 176 464 295 464 q 409 464 474 404 q 538 345 538 237 z"},"F":{"x_min":0,"x_max":563,"ha":563,"o":"m 269 314 l 269 153 q 269 96 270 59 q 270 47 282 43 l 354 23 l 355 -1 q 280 0 197 0 q 113 0 45 -1 l 42 23 l 108 41 q 121 45 121 56 q 122 96 122 153 l 122 542 q 122 567 122 587 q 122 607 121 624 q 121 636 109 640 l 44 659 l 42 684 q 111 682 172 682 l 296 682 q 415 682 542 684 l 545 680 l 515 517 l 489 513 l 458 632 l 269 632 l 269 361 l 296 361 q 339 361 388 362 q 401 363 404 375 l 422 442 l 454 444 q 453 373 453 338 q 453 304 454 233 l 422 230 l 404 300 q 400 312 389 313 q 339 314 296 314 z"},"`":{"x_min":0,"x_max":410,"ha":410,"o":"m 235 510 l 194 510 l 73 694 l 191 694 z m 0 454 z"},"k":{"x_min":0,"x_max":609,"ha":609,"o":"m 19 698 q 141 716 231 736 l 237 732 q 234 665 234 588 l 234 136 q 234 78 235 55 q 236 42 247 38 l 300 22 l 302 -1 q 237 0 166 0 q 93 0 22 -1 l 20 22 l 82 39 q 93 42 94 54 q 95 73 95 118 l 95 541 q 95 605 93 659 l 21 678 z m 609 -1 q 521 0 478 0 q 447 0 404 -1 q 388 27 366 60 q 310 146 243 234 l 430 418 l 376 432 l 374 455 q 434 454 476 454 q 511 454 589 455 l 592 432 q 531 418 509 406 q 486 395 458 369 l 369 284 l 518 75 q 534 54 547 44 q 561 34 607 22 z"},"u":{"x_min":0,"x_max":627,"ha":627,"o":"m 398 39 q 327 -14 242 -14 q 163 -14 123 25 q 83 64 83 135 l 83 239 q 83 343 81 393 l 11 411 l 8 431 q 128 449 219 468 l 225 464 q 222 403 222 313 l 222 163 q 222 105 244 79 q 267 53 309 53 q 355 53 394 73 l 394 281 q 394 349 392 394 l 326 411 l 323 431 q 438 449 529 468 l 535 464 q 532 402 532 311 q 532 133 532 94 q 533 75 535 63 q 538 51 544 44 q 551 38 565 35 q 578 33 603 32 l 605 11 q 535 -14 484 -14 q 419 -14 398 39 z"},"]":{"x_min":0,"x_max":355,"ha":355,"o":"m 166 704 l 45 731 l 44 756 l 252 756 l 252 -174 l 45 -174 l 44 -149 l 166 -121 z"},"U":{"x_min":0,"x_max":767,"ha":767,"o":"m 24 684 q 92 682 175 682 q 260 682 325 684 l 328 659 l 264 641 q 252 638 251 626 q 251 608 251 588 q 250 568 250 544 l 250 275 q 250 142 291 91 q 331 40 420 40 q 509 40 553 94 q 597 148 597 269 l 597 544 q 597 568 597 588 q 596 608 596 626 q 595 637 583 641 l 522 658 l 521 684 q 586 682 633 682 q 677 682 744 684 l 746 659 l 680 640 q 668 636 667 624 q 667 607 667 587 q 667 567 667 542 l 667 294 q 667 126 597 53 q 528 -20 396 -20 q 247 -20 175 50 q 104 120 104 273 l 104 542 q 104 567 104 587 q 104 607 103 624 q 103 636 91 640 l 26 659 z"},"o":{"x_min":0,"x_max":599,"ha":599,"o":"m 190 232 q 190 143 217 88 q 244 32 302 32 q 357 32 383 81 q 408 130 408 226 q 408 316 381 368 q 354 420 296 420 q 243 420 217 374 q 190 327 190 232 z m 560 236 q 560 125 485 55 q 411 -14 292 -14 q 176 -14 107 52 q 39 117 39 222 q 39 329 111 398 q 183 466 306 466 q 423 466 491 403 q 560 340 560 236 z"},"N":{"x_min":0,"x_max":756,"ha":756,"o":"m 175 58 q 175 44 187 41 l 250 24 l 251 -1 q 185 0 143 0 q 101 0 33 -1 l 30 23 l 96 41 q 108 45 109 56 q 110 96 110 153 l 110 542 q 110 591 109 624 q 108 636 97 640 l 32 659 l 30 684 q 99 682 135 682 q 183 682 226 684 l 551 277 q 570 252 591 225 q 590 259 590 290 l 590 544 q 590 592 589 626 q 588 637 576 641 l 514 658 l 512 684 q 580 682 622 682 q 665 682 730 684 l 733 659 l 667 640 q 655 636 655 624 q 653 591 653 542 l 653 0 l 597 -5 l 212 477 q 195 499 173 529 q 174 493 174 462 l 174 153 q 174 96 175 58 z"},"+":{"x_min":0,"x_max":552,"ha":552,"o":"m 41 260 l 242 260 l 242 461 l 311 461 l 311 260 l 511 260 l 511 191 l 311 191 l 311 -10 l 242 -10 l 242 191 l 41 191 z"},"G":{"x_min":0,"x_max":740,"ha":740,"o":"m 601 503 l 573 500 l 539 634 q 498 647 443 647 q 334 647 273 566 q 211 485 211 343 q 211 194 273 111 q 334 28 445 28 q 472 28 502 33 l 502 161 q 502 186 502 206 q 501 226 501 242 q 500 255 489 258 l 422 277 l 421 302 q 490 300 571 300 q 655 300 714 302 l 717 277 l 659 261 q 647 258 646 247 q 646 227 646 207 q 646 187 646 163 l 646 9 l 642 6 q 537 -18 442 -18 q 265 -18 156 73 q 48 164 48 326 q 48 499 156 597 q 265 695 452 695 q 542 695 628 675 l 632 670 z"},"q":{"x_min":0,"x_max":605,"ha":605,"o":"m 384 409 q 353 417 323 417 q 254 417 221 368 q 188 318 188 229 q 188 147 218 100 q 249 53 307 53 q 348 53 384 69 z m 525 464 q 522 369 522 239 l 522 -80 q 522 -161 522 -180 q 523 -193 534 -196 l 594 -214 l 596 -237 q 525 -236 454 -236 q 381 -236 311 -237 l 309 -214 l 370 -197 q 382 -193 383 -182 q 384 -123 384 -34 l 384 33 q 316 -14 243 -14 q 150 -14 94 50 q 38 114 38 209 q 38 331 112 398 q 186 466 315 466 q 371 466 432 451 q 469 457 520 468 z"},"d":{"x_min":0,"x_max":620,"ha":620,"o":"m 384 406 q 358 415 325 415 q 258 415 223 369 q 188 323 188 230 q 188 149 219 101 q 250 53 307 53 q 349 53 384 71 z m 307 698 q 426 716 520 736 l 526 732 q 522 627 522 507 l 522 242 q 522 178 523 110 q 523 85 525 70 q 527 55 533 47 q 540 39 554 36 q 567 33 594 32 l 597 11 q 525 -14 475 -14 q 410 -14 389 40 q 325 -14 248 -14 q 151 -14 95 50 q 39 114 39 209 q 39 332 111 398 q 184 465 314 465 q 346 465 384 459 q 384 562 382 659 l 311 678 z"},"1":{"x_min":0,"x_max":365,"ha":365,"o":"m 20 407 l 18 432 q 144 447 258 464 l 263 460 q 257 374 257 284 l 257 164 q 257 131 257 105 q 257 80 258 60 q 259 45 271 42 l 349 22 l 351 -1 q 260 0 190 0 q 120 0 30 -1 l 28 22 l 108 42 q 121 46 121 58 q 122 78 122 99 q 122 121 122 146 l 122 224 q 122 273 122 316 q 121 359 120 397 z"},"5":{"x_min":0,"x_max":467,"ha":467,"o":"m 33 -225 l 29 -182 q 91 -180 142 -167 q 193 -154 229 -131 q 264 -109 284 -78 q 303 -47 303 -8 q 303 55 263 92 q 222 129 152 129 q 97 129 48 119 l 45 122 l 74 454 q 158 452 254 452 q 354 452 429 454 l 432 450 l 419 335 l 124 335 l 112 221 q 160 228 212 228 q 318 228 383 175 q 448 121 448 37 q 448 -18 424 -65 q 400 -112 350 -147 q 300 -182 221 -203 q 143 -224 33 -225 z"}}}
